<svg width="180" height="387" xmlns="http://www.w3.org/2000/svg">
 <metadata id="metadata7">image/svg+xml</metadata>
 <g>
  <title>Layer 1</title>
  <g id="layer1">
   <rect id="rect3142" width="16.42857" height="158.57143" x="0" y="5.5244" fill="#000000"/>
   <rect id="rect3142-1" width="16.42857" height="158.57143" x="34.66438" y="6.93861" fill="#000000"/>
   <rect id="rect3142-1-7" width="16.42857" height="158.57143" x="70.21972" y="6.2315" fill="#000000"/>
   <rect id="rect3226" width="85.55992" height="15.55635" x="0.183" y="150.1154" fill="#000000"/>
   <rect id="rect3232" width="32.52691" height="221.32442" x="27.05307" y="155.77223" fill="#000000"/>
   <path id="path3268" d="m86.450043,165.318192a42.779961,9.54594 0 1 1 -85.559933,0a42.779961,9.54594 0 1 1 85.559933,0z" fill="#000000"/>
   <path id="path3272" d="m59.579971,378.167755a16.26346,8.48528 0 1 1 -32.526922,0a16.26346,8.48528 0 1 1 32.526922,0z" fill="#000000"/>
   <rect id="rect3232-8" width="32.52691" height="221.32442" x="147.87176" y="155.06508" fill="#000000"/>
   <path id="path3268-8" d="m175.329407,87.150383a27.34063,87.006607 0 1 1 -54.681236,0a27.34063,87.006607 0 1 1 54.681236,0z" fill="#000000"/>
   <path id="path3272-2" d="m180.398682,377.460571a16.26346,8.48528 0 1 1 -32.526917,0a16.26346,8.48528 0 1 1 32.526917,0z" fill="#000000"/>
   <rect id="rect3142-4-5" width="29.97797" height="167.84975" x="150.33627" y="0" fill="#000000"/>
  </g>
 </g>
</svg>
