<svg width="259" height="284" xmlns="http://www.w3.org/2000/svg">

 <metadata id="metadata7">image/svg+xml</metadata>
 <g>
  <title>Layer 1</title>
  <g id="layer1">
   <path fill="#00b100" stroke="#000000" stroke-width="8.2" stroke-miterlimit="4" id="rect4321" d="m72.5,0c-4.88205,0 -8.8125,3.930458 -8.8125,8.8125l0,67.59375l-55.3125,0c-4.634796,0 -8.375,3.740204 -8.375,8.375l0,81.9375c0,4.634796 3.740204,8.375 8.375,8.375l72.6875,0l-60.75,87.59375c-2.783112,4.011047 -1.792297,9.466888 2.21875,12.25l8.75,6.0625c4.011047,2.783112 9.466888,1.823547 12.25,-2.1875l68.59375,-98.875l0,50.0625c0,7.358368 5.922882,13.28125 13.28125,13.28125l69.5,0c7.358368,0 13.28125,-5.922882 13.28125,-13.28125l0,-61.875l42.40625,0c4.729065,0 8.53125,-4.652008 8.53125,-10.46875l0,-93.59375c0,-5.816757 -3.802185,-10.46875 -8.53125,-10.46875l-65.28125,0l0,-44.78125c0,-4.882042 -3.93045,-8.8125 -8.8125,-8.8125l-104,0z"/>
  </g>
 </g>
</svg>
