<?xml version="1.0" encoding="UTF-8" standalone="no"?>
<!-- Created with Inkscape (http://www.inkscape.org/) -->

<svg
   xmlns:dc="http://purl.org/dc/elements/1.1/"
   xmlns:cc="http://creativecommons.org/ns#"
   xmlns:rdf="http://www.w3.org/1999/02/22-rdf-syntax-ns#"
   xmlns:svg="http://www.w3.org/2000/svg"
   xmlns="http://www.w3.org/2000/svg"
   xmlns:sodipodi="http://sodipodi.sourceforge.net/DTD/sodipodi-0.dtd"
   xmlns:inkscape="http://www.inkscape.org/namespaces/inkscape"
   width="744.09448819"
   height="1052.3622047"
   id="svg2"
   version="1.1"
   inkscape:version="0.48.4 r9939"
   sodipodi:docname="moodle.svg">
  <sodipodi:namedview
     id="base"
     pagecolor="#ffffff"
     bordercolor="#666666"
     borderopacity="1.0"
     inkscape:pageopacity="0.0"
     inkscape:pageshadow="2"
     inkscape:zoom="1"
     inkscape:cx="512.71053"
     inkscape:cy="735.23695"
     inkscape:document-units="px"
     inkscape:current-layer="layer1"
     showgrid="false"
     inkscape:window-width="1600"
     inkscape:window-height="837"
     inkscape:window-x="-8"
     inkscape:window-y="-8"
     inkscape:window-maximized="1" />
  <defs
     id="defs4" />
  <metadata
     id="metadata7">
    <rdf:RDF>
      <cc:Work
         rdf:about="">
        <dc:format>image/svg+xml</dc:format>
        <dc:type
           rdf:resource="http://purl.org/dc/dcmitype/StillImage" />
        <dc:title></dc:title>
      </cc:Work>
    </rdf:RDF>
  </metadata>
  <g
     id="layer1"
     inkscape:groupmode="layer"
     inkscape:label="Layer 1">
    <rect
       style="fill:#ffffff;stroke:#000000;stroke-width:9.20496941;stroke-miterlimit:4;stroke-opacity:1;stroke-dasharray:none"
       id="rect4246"
       width="153.63171"
       height="191.13019"
       x="-524.43829"
       y="-272.44406"
       ry="8.812355"
       transform="matrix(-0.99719254,-0.07488015,0.07898063,-0.99687615,0,0)" />
    <g
       id="g4249"
       transform="translate(167.8772,11.87868)">
      <path
         inkscape:connector-curvature="0"
         id="path4238"
         d="m 196.57568,227.16857 c 42.42641,46.66905 42.42641,46.66905 42.42641,46.66905 l 95.45941,-84.14571 -9.19238,-9.19238 -79.90307,72.12489 -33.23402,-38.18377 z"
         style="fill:none;stroke:#000000;stroke-width:1px;stroke-linecap:butt;stroke-linejoin:miter;stroke-opacity:1" />
      <path
         inkscape:connector-curvature="0"
         id="path4242"
         d="m 219.1595,250.66989 c -10.96597,-12.05416 -20.1046,-22.3505 -20.30808,-22.88074 -0.36567,-0.95294 12.25667,-11.92955 13.29108,-11.55816 0.27139,0.0974 7.67931,8.45031 16.46204,18.56193 8.78274,10.11163 16.22861,18.47455 16.54639,18.58426 0.43029,0.14856 64.24555,-56.85682 78.06532,-69.73477 l 1.96334,-1.82954 3.93423,3.93422 3.93422,3.93423 -44.43488,39.17083 c -24.43919,21.54395 -45.57803,40.19763 -46.97521,41.45261 l -2.54032,2.28178 -19.93813,-21.91665 0,0 z"
         style="fill:#000000" />
    </g>
  </g>
</svg>
