<svg width="168" height="202" xmlns="http://www.w3.org/2000/svg">

 <metadata id="metadata7">image/svg+xml</metadata>
 <g>
  <title>Layer 1</title>
  <g id="layer1">
   <rect fill="#ffffff" stroke="#000000" stroke-width="9.204969" stroke-miterlimit="4" transform="matrix(-0.997193 -0.0748802 0.0789806 -0.996876 0 0)" ry="8.812355" y="-189.999819" x="-168.680262" height="191.13019" width="153.63171" id="rect4246"/>
   <g id="g4249">
    <path fill="none" stroke="#000000" stroke-width="1px" d="m16.205078,130.221313c42.426392,46.669067 42.426392,46.669067 42.426392,46.669067l95.459442,-84.145714l-9.192383,-9.192383l-79.903076,72.124916l-33.234039,-38.1838l-15.556335,12.727913z" id="path4238"/>
    <path fill="#000000" d="m38.788879,153.722656c-10.965942,-12.054153 -20.104584,-22.350494 -20.308044,-22.880737c-0.365692,-0.952942 12.256653,-11.929558 13.291077,-11.558174c0.271362,0.097397 7.679291,8.450317 16.462036,18.561928c8.782745,10.111649 16.228577,18.474548 16.546356,18.584274c0.430328,0.148544 64.245575,-56.856834 78.065338,-69.734779l1.963348,-1.829544l3.934235,3.934219l3.934204,3.934235l-44.434875,39.17083c-24.439178,21.543945 -45.578033,40.197632 -46.97522,41.452621l-2.540283,2.281799l-19.938171,-21.916672l0,0z" id="path4242"/>
   </g>
  </g>
 </g>
</svg>
