<svg width="400" height="297" xmlns="http://www.w3.org/2000/svg">

 <metadata id="metadata7">image/svg+xml</metadata>
 <g>
  <title>Layer 1</title>
  <g id="layer1">
   <path fill="#000000" stroke="#000100" stroke-width="0" stroke-miterlimit="4" id="rect5128" d="m113.8125,0c-4.88205,0 -8.8125,3.930466 -8.8125,8.8125l0,101.8125l-96.09375,0c-4.928986,0 -8.90625,3.946014 -8.90625,8.875l0,126.59375c0,4.928986 3.977264,8.90625 8.90625,8.90625l136.15625,0c-0.0448,-0.827515 -0.0625,-1.661285 -0.0625,-2.5c0,-25.128967 20.371033,-45.5 45.5,-45.5c25.128967,0 45.5,20.371033 45.5,45.5c0,0.838715 -0.0177,1.672485 -0.0625,2.5l34.03125,0c4.928986,0 8.90625,-3.977264 8.90625,-8.90625l0,-69.46875c0.076263,-0.468109 0.125,-0.947174 0.125,-1.4375l0,-166.375c0,-4.882034 -3.93045,-8.8125 -8.8125,-8.8125l-156.375,0zm13.84375,21.625l47.875,0c9.845459,0 17.78125,7.904541 17.78125,17.75l0,50.03125c0,9.845459 -7.935791,17.78125 -17.78125,17.78125l-47.875,0c-9.845459,0 -17.78125,-7.935791 -17.78125,-17.78125l0,-50.03125c0,-9.845459 7.935791,-17.75 17.78125,-17.75z"/>
   <rect fill="#000000" stroke="#000100" stroke-width="0" stroke-miterlimit="4" ry="0.287359" y="29.98718" x="293" height="6" width="105" id="rect5130-6"/>
   <rect fill="#000000" stroke="#000100" stroke-width="0" stroke-miterlimit="4" ry="0.287359" y="108.52271" x="294.79291" height="6" width="105" id="rect5130-6-1"/>
   <rect fill="#000000" stroke="#000100" stroke-width="0" stroke-miterlimit="4" ry="0.287359" y="190.98718" x="292.5" height="6" width="105" id="rect5130-6-4"/>
   <path fill="#000000" stroke="#000100" stroke-width="0" stroke-miterlimit="4" d="m234.5,251.987183a43.5,43.5 0 1 1 -87,0a43.5,43.5 0 1 1 87,0z" id="path5134"/>
   <path fill="#000000" stroke="#000100" stroke-width="0" stroke-miterlimit="4" d="m145.298981,253.28006a43.5,43.5 0 1 1 -87,0a43.5,43.5 0 1 1 87,0z" id="path5134-2"/>
  </g>
 </g>
</svg>
